<?xml version="1.0" encoding="utf-8"?>
<!-- Generator: Adobe Illustrator 25.4.1, SVG Export Plug-In . SVG Version: 6.00 Build 0)  -->
<svg version="1.1" id="Layer_1" xmlns="http://www.w3.org/2000/svg" xmlns:xlink="http://www.w3.org/1999/xlink" x="0px" y="0px"
	 viewBox="0 0 420 420" xml:space="preserve">
<path class="st0" d="M414.8,137.2c0,64,0,128,0,192c-6.7,17.4-12.9,21.6-31.7,21.6c-43,0-86.1,0-129.1,0
	c-73.4,0-146.8,0.1-220.2-0.1c-4.8,0-9.8-1.1-14.3-2.9c-8.2-3.3-11.9-10.6-14.2-18.6c0-64,0-128,0-192
	c65.7,27.8,131.3,55.5,197,83.4c5.4,2.3,10.2,2.3,15.7,0C283.5,192.7,349.1,165,414.8,137.2z" fill="#FFFFFF"/>
<path class="st0" d="M5.2,109.2c0-6.1,0-12.3,0-18.4c6.6-17.4,12.9-21.6,31.7-21.6c43,0,86.1,0,129.1,0c73.4,0,146.8-0.1,220.2,0.1
	c4.8,0,9.8,1.1,14.3,2.9c8.2,3.3,11.9,10.6,14.2,18.6c0,6.1,0,12.3,0,18.4c-0.7,0.3-1.4,0.7-2.2,1c-66.4,28.2-132.8,56.3-199.2,84.5
	c-2.6,1.1-4.7,0.9-7.2-0.2c-43.5-18.5-87-36.9-130.5-55.3C52.2,129.2,28.7,119.2,5.2,109.2z" fill="#FFFFFF"/>
</svg>
